HIERARCHY
ROOT pelvis
{
	OFFSET 0.003123 -0.351407 0.012037
	CHANNELS 6 Xposition Yposition Zposition Zrotation Yrotation Xrotation 
	JOINT left_hip
	{
		OFFSET 0.058189 -0.092763 -0.026001
		CHANNELS 3 Zrotation Yrotation Xrotation
		JOINT left_knee
		{
			OFFSET 0.054695 -0.378753 -0.009396
			CHANNELS 3 Zrotation Yrotation Xrotation
			JOINT left_ankle
			{
				OFFSET -0.043453 -0.403059 -0.031876
				CHANNELS 3 Zrotation Yrotation Xrotation
				JOINT left_foot
				{
					OFFSET 0.047257 -0.057997 0.118216
					CHANNELS 3 Zrotation Yrotation Xrotation
					End Site
					{
						OFFSET 0.000000 0.000000 0.000000
					}
				}
			}
		}
	}
	JOINT right_hip
	{
		OFFSET -0.063267 -0.103908 -0.021250
		CHANNELS 3 Zrotation Yrotation Xrotation
		JOINT right_knee
		{
			OFFSET -0.044210 -0.362380 -0.016824
			CHANNELS 3 Zrotation Yrotation Xrotation
			JOINT right_ankle
			{
				OFFSET 0.015417 -0.410728 -0.020192
				CHANNELS 3 Zrotation Yrotation Xrotation
				JOINT right_foot
				{
					OFFSET -0.038812 -0.058328 0.119049
					CHANNELS 3 Zrotation Yrotation Xrotation
					End Site
					{
						OFFSET 0.000000 0.000000 0.000000
					}
				}
			}
		}
	}
	JOINT spine_1
	{
		OFFSET -0.002763 0.109891 -0.027618
		CHANNELS 3 Zrotation Yrotation Xrotation
		JOINT spine_2
		{
			OFFSET 0.009448 0.131853 -0.005940
			CHANNELS 3 Zrotation Yrotation Xrotation
			JOINT spine_3
			{
				OFFSET -0.011330 0.052235 0.028447
				CHANNELS 3 Zrotation Yrotation Xrotation
				JOINT neck
				{
					OFFSET -0.012164 0.165167 -0.031615
					CHANNELS 3 Zrotation Yrotation Xrotation
					JOINT head
					{
						OFFSET 0.024783 0.160452 0.020737
						CHANNELS 3 Zrotation Yrotation Xrotation
						End Site
						{
							OFFSET 0.000000 0.000000 0.000000
						}
					}
				}
				JOINT left_collar
				{
					OFFSET 0.046364 0.084944 -0.007220
					CHANNELS 3 Zrotation Yrotation Xrotation
					JOINT left_shoulder
					{
						OFFSET 0.119239 0.057728 -0.015461
						CHANNELS 3 Zrotation Yrotation Xrotation
						JOINT left_elbow
						{
							OFFSET 0.254123 -0.072151 -0.042459
							CHANNELS 3 Zrotation Yrotation Xrotation
							JOINT left_wrist
							{
								OFFSET 0.251987 0.023221 -0.002472
								CHANNELS 3 Zrotation Yrotation Xrotation
								JOINT left_index_1
								{
									OFFSET 0.101902 -0.008688 0.019351
									CHANNELS 3 Zrotation Yrotation Xrotation
									JOINT left_index_2
									{
										OFFSET 0.030149 -0.011154 0.001151
										CHANNELS 3 Zrotation Yrotation Xrotation
										JOINT left_index_3
										{
											OFFSET 0.006504 -0.021577 -0.002433
											CHANNELS 3 Zrotation Yrotation Xrotation
											End Site
											{
												OFFSET 0.000000 0.000000 0.000000
											}
										}
									}
								}
								JOINT left_middle_1
								{
									OFFSET 0.109398 -0.006328 -0.003981
									CHANNELS 3 Zrotation Yrotation Xrotation
									JOINT left_middle_2
									{
										OFFSET 0.026472 -0.015218 -0.004641
										CHANNELS 3 Zrotation Yrotation Xrotation
										JOINT left_middle_3
										{
											OFFSET 0.005022 -0.023347 -0.001911
											CHANNELS 3 Zrotation Yrotation Xrotation
											End Site
											{
												OFFSET 0.000000 0.000000 0.000000
											}
										}
									}
								}
								JOINT left_pinky_1
								{
									OFFSET 0.084047 -0.014539 -0.043750
									CHANNELS 3 Zrotation Yrotation Xrotation
									JOINT left_pinky_2
									{
										OFFSET 0.012124 -0.014448 -0.005375
										CHANNELS 3 Zrotation Yrotation Xrotation
										JOINT left_pinky_3
										{
											OFFSET 0.003798 -0.018853 0.000167
											CHANNELS 3 Zrotation Yrotation Xrotation
											End Site
											{
												OFFSET 0.000000 0.000000 0.000000
											}
										}
									}
								}
								JOINT left_ring_1
								{
									OFFSET 0.097444 -0.009268 -0.027345
									CHANNELS 3 Zrotation Yrotation Xrotation
									JOINT left_ring_2
									{
										OFFSET 0.023561 -0.016057 -0.001895
										CHANNELS 3 Zrotation Yrotation Xrotation
										JOINT left_ring_3
										{
											OFFSET 0.004257 -0.023548 0.000814
											CHANNELS 3 Zrotation Yrotation Xrotation
											End Site
											{
												OFFSET 0.000000 0.000000 0.000000
											}
										}
									}
								}
								JOINT left_thumb_1
								{
									OFFSET 0.040636 -0.017977 0.025611
									CHANNELS 3 Zrotation Yrotation Xrotation
									JOINT left_thumb_2
									{
										OFFSET 0.021637 -0.017639 0.011623
										CHANNELS 3 Zrotation Yrotation Xrotation
										JOINT left_thumb_3
										{
											OFFSET 0.024002 -0.008356 0.006548
											CHANNELS 3 Zrotation Yrotation Xrotation
											End Site
											{
												OFFSET 0.000000 0.000000 0.000000
											}
										}
									}
								}
							}
						}
					}
				}
				JOINT right_collar
				{
					OFFSET -0.047695 0.084339 -0.013400
					CHANNELS 3 Zrotation Yrotation Xrotation
					JOINT right_shoulder
					{
						OFFSET -0.102578 0.053524 -0.012669
						CHANNELS 3 Zrotation Yrotation Xrotation
						JOINT right_elbow
						{
							OFFSET -0.271150 -0.036492 -0.026467
							CHANNELS 3 Zrotation Yrotation Xrotation
							JOINT right_wrist
							{
								OFFSET -0.249267 -0.004533 -0.015325
								CHANNELS 3 Zrotation Yrotation Xrotation
								JOINT right_index_1
								{
									OFFSET -0.099881 -0.011783 0.019600
									CHANNELS 3 Zrotation Yrotation Xrotation
									JOINT right_index_2
									{
										OFFSET -0.030148 -0.011154 0.001151
										CHANNELS 3 Zrotation Yrotation Xrotation
										JOINT right_index_3
										{
											OFFSET -0.006505 -0.021577 -0.002432
											CHANNELS 3 Zrotation Yrotation Xrotation
											End Site
											{
												OFFSET 0.000000 0.000000 0.000000
											}
										}
									}
								}
								JOINT right_middle_1
								{
									OFFSET -0.107376 -0.009422 -0.003734
									CHANNELS 3 Zrotation Yrotation Xrotation
									JOINT right_middle_2
									{
										OFFSET -0.026472 -0.015218 -0.004641
										CHANNELS 3 Zrotation Yrotation Xrotation
										JOINT right_middle_3
										{
											OFFSET -0.005022 -0.023347 -0.001911
											CHANNELS 3 Zrotation Yrotation Xrotation
											End Site
											{
												OFFSET 0.000000 0.000000 0.000000
											}
										}
									}
								}
								JOINT right_pinky_1
								{
									OFFSET -0.082027 -0.017634 -0.043503
									CHANNELS 3 Zrotation Yrotation Xrotation
									JOINT right_pinky_2
									{
										OFFSET -0.012123 -0.014448 -0.005374
										CHANNELS 3 Zrotation Yrotation Xrotation
										JOINT right_pinky_3
										{
											OFFSET -0.003798 -0.018852 0.000167
											CHANNELS 3 Zrotation Yrotation Xrotation
											End Site
											{
												OFFSET 0.000000 0.000000 0.000000
											}
										}
									}
								}
								JOINT right_ring_1
								{
									OFFSET -0.095423 -0.012362 -0.027099
									CHANNELS 3 Zrotation Yrotation Xrotation
									JOINT right_ring_2
									{
										OFFSET -0.023561 -0.016057 -0.001895
										CHANNELS 3 Zrotation Yrotation Xrotation
										JOINT right_ring_3
										{
											OFFSET -0.004257 -0.023548 0.000816
											CHANNELS 3 Zrotation Yrotation Xrotation
											End Site
											{
												OFFSET 0.000000 0.000000 0.000000
											}
										}
									}
								}
								JOINT right_thumb_1
								{
									OFFSET -0.038613 -0.021074 0.025861
									CHANNELS 3 Zrotation Yrotation Xrotation
									JOINT right_thumb_2
									{
										OFFSET -0.021636 -0.017639 0.011623
										CHANNELS 3 Zrotation Yrotation Xrotation
										JOINT right_thumb_3
										{
											OFFSET -0.024004 -0.008353 0.006547
											CHANNELS 3 Zrotation Yrotation Xrotation
											End Site
											{
												OFFSET 0.000000 0.000000 0.000000
											}
										}
									}
								}
							}
						}
					}
				}
			}
		}
	}
}
MOTION
Frames: 4
Frame Time: 0.050000
0.064569 0.922405 0.511383 -0.709576 -2.071557 -2.735464 -1.944754 0.325946 1.805886 -3.069125 -0.988451 15.916267 4.199686 2.970338 -7.922222 0.000000 0.000000 0.000000 0.019878 -0.366795 3.026805 0.710632 0.118105 4.716567 -33.200601 -39.303460 52.144418 0.000000 0.000000 0.000000 -2.935385 -0.883379 16.062460 -8.140072 0.009225 -14.964160 9.985875 1.226088 26.193567 3.230880 0.772798 -7.678804 0.000000 0.000000 0.000000 1.450671 -12.592574 6.121345 -49.817142 -49.932935 -0.394120 2.827403 -31.829356 2.516228 10.950722 3.054303 -17.029294 -19.114447 21.961290 2.496044 -53.437490 1.413344 0.530514 0.000000 0.000000 0.000000 -26.901232 -0.142446 -2.573366 -51.767135 -14.198484 -18.638071 0.000000 0.000000 0.000000 -7.605304 -36.057705 -47.750362 -23.407491 -5.766683 -8.895221 0.000000 0.000000 0.000000 -25.372811 -25.392066 -10.005265 -43.666410 -16.763407 -16.130605 0.000000 0.000000 0.000000 33.739943 43.098012 34.070382 -4.567093 -40.186908 -17.691390 0.000000 0.000000 0.000000 -2.823738 9.935851 5.110271 51.188363 46.275243 10.038234 -6.402737 41.300269 -2.580815 -6.313663 -1.440969 -11.808603 18.794181 -8.637227 1.921375 54.605042 -5.895788 3.628738 0.000000 0.000000 0.000000 37.816169 8.429761 -5.538325 56.901055 12.636716 -17.860027 0.000000 0.000000 0.000000 23.012989 54.374253 -60.417961 12.640427 -3.782056 10.957069 0.000000 0.000000 0.000000 43.668245 36.877527 -9.289742 36.707239 13.344300 -17.162158 0.000000 0.000000 0.000000 -27.108041 -35.802883 28.247589 8.764703 28.590754 -7.339553 0.000000 0.000000 0.000000 
0.061743 0.922808 0.508743 -1.167958 -3.100726 -3.167915 -1.571632 0.438850 2.607879 -2.802477 -0.954506 15.170295 4.542111 3.858443 -8.022059 0.000000 0.000000 0.000000 0.420948 -0.451417 3.488682 1.040499 0.080218 4.304843 -32.475935 -39.010781 51.057135 0.000000 0.000000 0.000000 -2.818326 -0.936742 16.996854 -8.668705 -0.070798 -15.809652 9.887798 0.675805 25.907899 3.284766 0.695975 -7.373582 0.000000 0.000000 0.000000 1.576423 -11.036001 5.374496 -51.913724 -48.790232 0.457061 3.830380 -32.388580 2.337966 12.127135 4.239668 -17.271595 -17.194751 16.363543 2.224619 -42.993339 2.014413 3.744664 0.000000 0.000000 0.000000 -27.507130 -0.718751 -2.534164 -45.670319 -10.625108 -15.458571 0.000000 0.000000 0.000000 -15.498194 -34.606401 -41.440067 -23.205751 -5.413269 -9.084640 0.000000 0.000000 0.000000 -30.414888 -21.024643 -6.692267 -44.301724 -15.339069 -14.330283 0.000000 0.000000 0.000000 28.167703 38.995786 27.024076 -7.917468 -30.892952 -11.313346 0.000000 0.000000 0.000000 -2.989655 10.713315 5.511445 51.467062 46.573177 9.848394 -5.143706 42.225305 -2.280141 -7.173840 -3.829912 -12.183646 19.231126 -6.362221 1.779482 41.357223 -4.777396 5.187935 0.000000 0.000000 0.000000 27.964117 11.614252 -6.179717 52.026633 8.322050 -12.330277 0.000000 0.000000 0.000000 12.207901 47.571448 -59.533402 24.751876 -1.771175 4.048409 0.000000 0.000000 0.000000 35.571570 31.668063 -10.177337 39.300900 13.014942 -15.019652 0.000000 0.000000 0.000000 -27.133661 -35.385791 27.992415 9.792402 26.970416 -5.990345 0.000000 0.000000 0.000000 
0.061272 0.922728 0.506104 -1.012552 -2.029076 -3.590974 -1.760478 0.512804 3.016363 -2.299561 -1.084360 14.942813 4.361658 2.883041 -8.504080 0.000000 0.000000 0.000000 0.474628 -0.535079 4.121578 0.898619 0.074891 3.866361 -33.412334 -39.448872 51.943933 0.000000 0.000000 0.000000 -3.176036 -0.901607 16.891970 -8.460276 0.137447 -14.976462 10.544453 1.740548 25.402432 3.319297 0.768893 -7.637908 0.000000 0.000000 0.000000 1.525750 -11.903390 5.787415 -51.095553 -50.385271 0.009638 2.208384 -31.699041 2.665807 11.572393 4.542658 -17.889071 -13.633505 15.390059 2.619140 -40.809386 4.113231 8.157862 0.000000 0.000000 0.000000 -23.086462 -3.251243 -3.067403 -45.085941 -10.093266 -14.000340 0.000000 0.000000 0.000000 -6.967872 -33.409733 -43.899479 -32.580776 -6.693954 -9.898754 0.000000 0.000000 0.000000 -24.487663 -22.052414 -8.666653 -42.265945 -15.066505 -14.116307 0.000000 0.000000 0.000000 27.421139 37.392537 25.844779 -8.418319 -25.952133 -8.302435 0.000000 0.000000 0.000000 -2.704006 8.950347 4.619186 51.727074 44.736201 9.793195 -4.661666 42.387671 -2.062491 -8.459340 -2.646199 -11.537928 17.990134 -6.246042 1.795920 36.909363 -4.804504 5.708222 0.000000 0.000000 0.000000 30.171822 10.092178 -5.662166 51.706189 8.411633 -13.128831 0.000000 0.000000 0.000000 13.875210 51.078207 -62.430277 22.909065 -2.311143 5.644778 0.000000 0.000000 0.000000 31.567682 34.230042 -12.190760 42.010545 14.273925 -16.092730 0.000000 0.000000 0.000000 -26.693228 -35.543573 28.442017 7.191530 27.832549 -7.396866 0.000000 0.000000 0.000000 
0.061036 0.922486 0.503464 -0.785207 -1.366145 -2.963611 -1.980566 0.402197 2.260532 -2.136494 -1.119493 14.709300 4.246732 2.349640 -8.697082 0.000000 0.000000 0.000000 0.404131 -0.443306 3.410885 0.777678 0.076475 3.652493 -34.234814 -39.850352 52.585079 0.000000 0.000000 0.000000 -2.672363 -0.888663 15.580609 -8.096151 0.093313 -14.722302 9.679924 1.413031 25.606412 2.874034 0.838478 -7.743276 0.000000 0.000000 0.000000 1.266875 -12.815206 6.231820 -49.521102 -49.952584 -0.649985 2.650806 -31.153624 2.485300 9.851511 2.828950 -16.905030 -13.312640 17.896409 3.192571 -34.280416 2.197188 5.037111 0.000000 0.000000 0.000000 -19.590233 -2.785787 -2.968708 -48.865630 -8.304139 -10.391156 0.000000 0.000000 0.000000 -4.693244 -31.200642 -42.301046 -25.458303 -6.454388 -10.650719 0.000000 0.000000 0.000000 -21.918686 -20.476408 -8.877021 -44.015435 -14.727667 -13.084967 0.000000 0.000000 0.000000 30.186777 38.295666 28.193896 -6.684206 -31.457901 -10.682720 0.000000 0.000000 0.000000 -2.495517 9.344962 4.819070 52.167255 44.727054 9.976147 -6.142340 41.622252 -2.494633 -6.796501 -2.694632 -9.521358 17.895665 -6.492911 1.766183 49.700027 -8.395033 6.957715 0.000000 0.000000 0.000000 33.505663 10.648561 -6.106950 57.689439 7.773583 -12.167136 0.000000 0.000000 0.000000 10.081160 54.007675 -69.367362 26.943898 -4.437475 9.600901 0.000000 0.000000 0.000000 37.082635 36.289800 -11.523613 42.657889 14.288250 -16.561698 0.000000 0.000000 0.000000 -28.441149 -34.935185 28.174047 10.500019 27.020985 -5.460875 0.000000 0.000000 0.000000 
